# xmcd
#
# Track frame offsets:
#	150
#	26482
#	48535
#	69257
#	85680
#	113955
#	128027
#	152373
#	171064
#	194724
#
# Disc length: 2919 seconds
# Revision: 0
# Processed by: cddbd v1.5.2PL0 Copyright (c) Steve Scherf et al.
# Submitted via: dBpowerAMP V12.0
#
DISCID=7b0b650a
DTITLE=Yannick Bernard - Vagues a l'ame
DYEAR=2009
DGENRE=Chanson
TTITLE0=Vagues a l'ame
TTITLE1=Ces mots la
TTITLE2=Politique
TTITLE3=L'haleine d'Helene
TTITLE4=Ma petite planete
TTITLE5=Rebelle
TTITLE6=Le retour de la bete
TTITLE7=J'aimerais
TTITLE8=Le temps
TTITLE9=Ma ville natale
EXTD=
EXTT0=
EXTT1=
EXTT2=
EXTT3=
EXTT4=
EXTT5=
EXTT6=
EXTT7=
EXTT8=
EXTT9=
PLAYORDER=
